PathFileType	4	(X/Y/Z)	TVC_16_BWA5_walk_RCNL2025.trc
DataRate	CameraRate	NumFrames	NumMarkers	Units	OrigDataRate	OrigDataStartFrame	OrigNumFrames
100	100	7	27	mm	100	84	671
Frame#	Time	R_Shoulder			L_Shoulder			C7			J_Notch			R_Elbow			L_Elbow			R_Wrist			L_Wrist			R_Asis			L_Asis			R_Psis			L_Psis			Sacral			Thoracic			Sternum			R_Thigh_Lateral			R_Knee_Lateral			R_Shank_Lateral			R_Ankle_Lateral			R_Heel			R_Toe			L_Thigh_Lateral			L_Knee_Lateral			L_Shank_Lateral			L_Ankle_Lateral			L_Heel			L_Toe		
		X1	Y1	Z1	X2	Y2	Z2	X3	Y3	Z3	X4	Y4	Z4	X5	Y5	Z5	X6	Y6	Z6	X7	Y7	Z7	X8	Y8	Z8	X9	Y9	Z9	X10	Y10	Z10	X11	Y11	Z11	X12	Y12	Z12	X13	Y13	Z13	X14	Y14	Z14	X15	Y15	Z15	X16	Y16	Z16	X17	Y17	Z17	X18	Y18	Z18	X19	Y19	Z19	X20	Y20	Z20	X21	Y21	Z21	X22	Y22	Z22	X23	Y23	Z23	X24	Y24	Z24	X25	Y25	Z25	X26	Y26	Z26	X27	Y27	Z27
84	0.83000000	-981.527405	1310.084961	11.632231	-983.649780	1305.028076	-313.312927	-1039.804565	1361.894165	-144.405487	-905.047852	1229.883667	-139.265610	-1018.368469	998.609070	96.298744	-975.178223	982.153320	-379.086456	-922.497375	788.399384	105.287804	-881.399628	795.765106	-312.610931	-957.610779	877.381470	-18.063425	-975.770569	892.465393	-282.613647	-1136.641235	916.755737	-91.287224	-1139.369751	915.749329	-198.097229	-1138.005493	916.252533	-144.692226	-1116.298706	1098.739624	-148.305740	-877.883179	1035.951172	-152.894623	-1027.142456	595.516052	61.441673	-1024.883789	421.215729	-32.834473	-1083.349976	271.098297	13.770261	-1174.852417	72.166061	-68.631912	-1227.385010	77.159538	-115.282646	-1061.283447	40.667267	-117.311760	-924.519531	618.251526	-371.559143	-870.875732	445.534271	-279.089508	-894.502869	302.216797	-355.483704	-914.656006	71.637535	-293.250854	-964.204346	64.663948	-254.223892	-788.456665	47.922279	-241.950043
85	0.84000000	-978.868591	1309.785278	10.861931	-980.206116	1304.847290	-314.131622	-1036.817139	1361.620728	-145.298431	-901.975464	1229.703369	-139.841400	-1014.203735	998.306213	95.883095	-972.699280	981.923828	-380.101929	-917.250183	788.585876	104.969162	-879.352844	795.142548	-314.165146	-954.834106	877.273865	-18.635691	-972.059875	891.966309	-283.261780	-1133.604492	916.579102	-92.479134	-1135.880371	915.433228	-199.289719	-1134.742432	916.006165	-145.884426	-1113.077148	1098.452759	-149.579453	-874.769775	1035.751343	-153.269165	-1024.819214	595.613037	61.134426	-1022.829895	421.127014	-32.871719	-1082.190552	271.314240	13.804343	-1174.582397	72.719269	-68.585342	-1227.045654	78.004425	-115.272629	-1061.230347	40.671097	-117.257126	-921.384705	617.264038	-371.838531	-868.108154	444.905304	-278.712097	-890.089417	301.177185	-354.458008	-907.870544	70.574203	-291.078430	-957.355225	63.376854	-252.000748	-781.265686	47.990444	-239.631699
86	0.85000000	-976.074158	1309.481323	10.039331	-976.712219	1304.660767	-314.999512	-1033.749390	1361.344604	-146.231384	-898.818909	1229.512085	-140.482254	-1010.025696	998.016968	95.407005	-970.119263	981.674805	-381.118317	-911.971375	788.795380	104.653191	-877.145874	794.561462	-315.633591	-951.982971	877.140991	-19.280483	-968.303284	891.447876	-283.965515	-1130.508545	916.411377	-93.704628	-1132.326172	915.115662	-200.528961	-1131.417358	915.763519	-147.116795	-1109.781372	1098.172241	-150.883438	-871.583069	1035.528076	-153.711517	-1022.521729	595.710205	60.777000	-1020.756226	421.024384	-32.965244	-1081.046387	271.541473	13.814409	-1174.313965	73.280762	-68.549744	-1226.699097	78.850113	-115.275421	-1061.171143	40.673504	-117.200653	-918.384399	616.135010	-372.114288	-865.288818	444.253601	-278.325653	-886.085999	300.072479	-353.309265	-901.754578	69.598419	-288.809692	-951.090515	62.214912	-249.571823	-774.662415	47.984478	-237.516800
87	0.86000000	-973.139587	1309.178467	9.163222	-973.170044	1304.470825	-315.918152	-1030.599243	1361.070679	-147.204987	-895.577087	1229.313965	-141.191330	-1005.848816	997.748535	94.872223	-967.429565	981.407410	-382.133392	-906.677216	789.033325	104.335987	-874.768219	794.022125	-317.015854	-949.045471	876.991028	-19.992121	-964.496765	890.915588	-284.721771	-1127.348633	916.256042	-94.961342	-1128.706421	914.801514	-201.811447	-1128.027527	915.528778	-148.386395	-1106.410278	1097.902588	-152.213928	-868.321350	1035.284790	-154.227264	-1020.238647	595.802673	60.365818	-1018.643066	420.907104	-33.122204	-1079.902954	271.777374	13.793993	-1174.041992	73.855682	-68.527847	-1226.341431	79.705261	-115.293365	-1061.104004	40.673641	-117.144081	-915.548950	614.856628	-372.389679	-862.412659	443.584686	-277.939514	-882.543823	298.891785	-352.054077	-896.331726	68.703377	-286.489716	-945.441711	61.169506	-246.990067	-768.681519	47.898388	-235.637299
88	0.87000000	-970.061951	1308.883179	8.232526	-969.580933	1304.280640	-316.889038	-1027.365601	1360.804688	-148.220062	-892.249451	1229.114014	-141.971420	-1001.686951	997.508789	94.280792	-964.622192	981.123840	-383.145569	-901.384705	789.305328	104.013603	-872.212280	793.523956	-318.313766	-946.010437	876.833191	-20.763685	-960.636414	890.376282	-285.526764	-1124.120117	916.117065	-96.245995	-1125.021118	914.496277	-203.132584	-1124.570618	915.306671	-149.689289	-1102.963135	1097.648560	-153.567230	-864.983459	1035.026001	-154.821198	-1017.951233	595.885132	59.897594	-1016.469116	420.775513	-33.348209	-1078.741821	272.019531	13.736990	-1173.760132	74.451065	-68.521896	-1225.968018	80.580963	-115.328003	-1061.026978	40.671154	-117.089531	-912.902649	613.430359	-372.667816	-859.477844	442.904358	-277.564209	-879.511169	297.638367	-350.721649	-891.612122	67.883781	-284.170044	-940.431763	60.234203	-244.320984	-763.351135	47.729317	-234.014389
89	0.88000000	-966.840393	1308.602539	7.246374	-965.945557	1304.093994	-317.913483	-1024.047607	1360.552612	-149.277634	-888.835876	1228.917847	-142.824844	-997.553223	997.305908	93.634911	-961.689941	980.827454	-384.153961	-896.111847	789.617401	103.682194	-869.473358	793.066101	-319.531158	-942.869324	876.676758	-21.587402	-956.719238	889.837830	-286.376312	-1120.818604	915.999084	-97.554245	-1121.270752	914.206055	-204.486618	-1121.044678	915.102570	-151.020432	-1099.439331	1097.415649	-154.939743	-861.568481	1034.757568	-155.497086	-1015.634766	595.953125	59.370155	-1014.212708	420.631256	-33.646778	-1077.539551	272.266327	13.637261	-1173.460815	75.076035	-68.533524	-1225.573364	81.490692	-115.380035	-1060.938354	40.666477	-117.039276	-910.460266	611.869324	-372.951233	-856.485291	442.219055	-277.211151	-877.024170	296.332947	-349.354492	-887.591003	67.135887	-281.906433	-936.072998	59.404789	-241.639908	-758.689819	47.478149	-232.657867
90	0.89000000	-963.475708	1308.344482	6.204183	-962.264160	1303.915283	-318.992554	-1020.644958	1360.320923	-150.378769	-885.336914	1228.731934	-143.753281	-993.460083	997.148499	92.936852	-958.626404	980.522522	-385.158264	-890.877075	789.975586	103.338093	-866.549622	792.647552	-320.673782	-939.617432	876.530518	-22.455093	-952.743652	889.309082	-287.266205	-1117.439575	915.907288	-98.880684	-1117.456421	913.937561	-205.866653	-1117.447998	914.922424	-152.373669	-1095.839111	1097.209106	-156.327805	-858.075928	1034.486328	-156.257584	-1013.259155	596.003418	58.782978	-1011.852356	420.477448	-34.018753	-1076.268188	272.517517	13.488504	-1173.135986	75.741676	-68.563568	-1225.151001	82.449921	-115.449455	-1060.837402	40.661034	-116.995537	-908.223877	610.199951	-373.241730	-853.438965	441.535797	-276.892609	-875.094543	295.014069	-348.007050	-884.247559	66.457275	-279.755798	-932.364502	58.678917	-239.027634	-754.703186	47.149948	-231.566086
